# WaveFront *.obj file (generated by CINEMA 4D)

mtllib test.mtl
# w = 0.05; h = 0.002;

v  0.25 -0.05 -0.25
v  0.25 0.05 -0.25
v  0.75 0.05 -0.25
v  0.75 -0.05 -0.25
v  0.25 -0.05 0.25
v  0.75 -0.05 0.25
v  0.75 0.05 0.25
v  0.25 0.05 0.25
# 8 vertices

vn 0.0000 0.0000 -1.0000
vn 0.0000 0.0000 1.0000
vn 0.0000 -1.0000 0.0000
vn 1.0000 0.0000 0.0000
vn 0.0000 1.0000 0.0000
vn -1.0000 0.0000 0.0000
# 6 vertex normals

vt 1.0000 0.0000 0.0000
vt 1.0000 1.0000 0.0000
vt 0.0000 1.0000 0.0000
vt 0.0000 0.0000 0.0000
# 4 texture coords

usemtl 材质
f 1/1/1 2/2/1 3/3/1 4/4/1
f 5/4/2 6/1/2 7/2/2 8/3/2
f 1/4/3 4/1/3 6/2/3 5/3/3
f 4/4/4 3/1/4 7/2/4 6/3/4
f 3/4/5 2/1/5 8/2/5 7/3/5
f 2/4/6 1/1/6 5/2/6 8/3/6

v  -0.75 -0.05 -0.25
v  -0.75 0.05 -0.25
v  -0.25 0.05 -0.25
v  -0.25 -0.05 -0.25
v  -0.75 -0.05 0.25
v  -0.25 -0.05 0.25
v  -0.25 0.05 0.25
v  -0.75 0.05 0.25

usemtl 材质
f 9/1/1 10/2/1 11/3/1 12/4/1
f 13/4/2 14/1/2 15/2/2 16/3/2
f 9/4/3 12/1/3 14/2/3 13/3/3
f 12/4/4 11/1/4 15/2/4 14/3/4
f 11/4/5 10/1/5 16/2/5 15/3/5
f 10/4/6 9/1/6 13/2/6 16/3/6